<?xml version="1.0" encoding="utf-8"?>
<!-- Generator: Adobe Illustrator 24.0.0, SVG Export Plug-In . SVG Version: 6.00 Build 0)  -->
<svg version="1.1" id="Layer_1" xmlns="http://www.w3.org/2000/svg" xmlns:xlink="http://www.w3.org/1999/xlink" x="0px" y="0px"
	 viewBox="0 0 261 41" style="enable-background:new 0 0 261 41;" xml:space="preserve">
<style type="text/css">
	.st0{fill:#FFFFFF;}
	.st1{fill-rule:evenodd;clip-rule:evenodd;fill:#FFFFFF;}
	.st2{fill:#01ABEC;}
	.st3{fill:#E90189;}
	.st4{fill:#FDEF01;}
	.st5{fill:#00ACED;}
	.st6{fill:#EB008A;}
	.st7{fill:#FFF000;}
	.st8{fill:#5D5D5D;}
	.st9{fill-rule:evenodd;clip-rule:evenodd;}
	.st10{fill:#0084B3;}
	.st11{fill:#020202;}
</style>
<g>
	<g>
		<path d="M8.51,27.8c1.59,0.82,4.04,1.63,6.56,1.63c2.72,0,4.15-1.13,4.15-2.83c0-1.63-1.24-2.56-4.39-3.69
			c-4.35-1.51-7.18-3.92-7.18-7.73c0-4.47,3.73-7.88,9.9-7.88c2.95,0,5.12,0.62,6.68,1.32l-1.32,4.77c-1.05-0.5-2.91-1.24-5.48-1.24
			s-3.81,1.16-3.81,2.52c0,1.67,1.48,2.41,4.85,3.69c4.62,1.71,6.79,4.12,6.79,7.8c0,4.39-3.38,8.11-10.56,8.11
			c-2.99,0-5.94-0.78-7.42-1.59L8.51,27.8z"/>
		<path d="M31.02,14.91l2.56,8.81c0.47,1.59,0.81,3.11,1.09,4.62h0.12c0.31-1.55,0.62-2.99,1.05-4.62l2.45-8.81h6.21L37.42,33.9
			h-5.9l-6.91-18.99H31.02z"/>
		<path d="M63.85,24.19c0,6.95-4.93,10.13-10.02,10.13c-5.55,0-9.82-3.65-9.82-9.78c0-6.13,4.04-10.06,10.13-10.06
			C59.96,14.48,63.85,18.48,63.85,24.19z M50.1,24.38c0,3.26,1.36,5.71,3.88,5.71c2.29,0,3.77-2.29,3.77-5.71
			c0-2.83-1.09-5.71-3.77-5.71C51.15,18.68,50.1,21.59,50.1,24.38z"/>
		<path d="M65.95,33.9c0.08-1.24,0.16-3.53,0.16-5.67V6.33h5.9v10.83h0.08c1.13-1.63,3.11-2.68,5.75-2.68
			c4.54,0,7.88,3.77,7.84,9.59c0,6.83-4.35,10.25-8.7,10.25c-2.21,0-4.35-0.81-5.71-3.07H71.2l-0.23,2.64H65.95z M72.01,25.82
			c0,0.39,0.04,0.74,0.12,1.05c0.39,1.59,1.75,2.8,3.46,2.8c2.52,0,4.08-1.94,4.08-5.36c0-2.95-1.32-5.28-4.08-5.28
			c-1.59,0-3.07,1.2-3.46,2.91c-0.08,0.35-0.12,0.7-0.12,1.09V25.82z"/>
		<path d="M106.8,24.19c0,6.95-4.93,10.13-10.02,10.13c-5.55,0-9.82-3.65-9.82-9.78c0-6.13,4.04-10.06,10.13-10.06
			C102.92,14.48,106.8,18.48,106.8,24.19z M93.06,24.38c0,3.26,1.36,5.71,3.88,5.71c2.29,0,3.77-2.29,3.77-5.71
			c0-2.83-1.09-5.71-3.77-5.71C94.11,18.68,93.06,21.59,93.06,24.38z"/>
		<path d="M127.65,6.33v21.9c0,2.14,0.08,4.39,0.16,5.67h-5.24l-0.27-2.8h-0.08c-1.2,2.14-3.49,3.22-5.94,3.22
			c-4.5,0-8.11-3.84-8.11-9.74c-0.04-6.41,3.96-10.1,8.5-10.1c2.33,0,4.15,0.81,5.01,2.14h0.08V6.33H127.65z M121.75,22.95
			c0-0.31-0.04-0.74-0.08-1.05c-0.35-1.59-1.63-2.91-3.46-2.91c-2.68,0-4.08,2.41-4.08,5.4c0,3.22,1.59,5.24,4.04,5.24
			c1.71,0,3.07-1.16,3.42-2.83c0.12-0.43,0.16-0.85,0.16-1.36V22.95z"/>
		<path d="M141.88,33.9l-0.35-1.9h-0.12c-1.24,1.51-3.18,2.33-5.44,2.33c-3.84,0-6.13-2.8-6.13-5.82c0-4.93,4.43-7.3,11.14-7.26
			v-0.27c0-1.01-0.54-2.45-3.46-2.45c-1.94,0-4,0.66-5.24,1.44l-1.09-3.81c1.32-0.74,3.92-1.67,7.38-1.67
			c6.33,0,8.35,3.73,8.35,8.19v6.6c0,1.82,0.08,3.57,0.27,4.62H141.88z M141.18,24.93c-3.11-0.04-5.51,0.7-5.51,2.99
			c0,1.51,1.01,2.25,2.33,2.25c1.48,0,2.68-0.97,3.07-2.17c0.08-0.31,0.12-0.66,0.12-1.01V24.93z"/>
	</g>
	<path d="M208.88,21.67c-0.22-0.04-0.43-0.06-0.62-0.08c-0.19-0.01-0.41-0.02-0.64-0.02c-0.89,0-1.61,0.19-2.17,0.57
		c-0.56,0.38-0.98,0.89-1.26,1.53v10.42h-2.57V19.42h2.5l0.04,1.69c0.39-0.61,0.88-1.09,1.46-1.44c0.58-0.35,1.29-0.53,2.12-0.53
		c0.19,0,0.4,0.02,0.64,0.06c0.24,0.04,0.41,0.09,0.5,0.13V21.67z"/>
	<path d="M217.21,34.36c-1.05,0-1.99-0.17-2.84-0.53c-0.85-0.35-1.57-0.84-2.17-1.47c-0.6-0.63-1.06-1.38-1.39-2.25
		c-0.32-0.87-0.49-1.82-0.49-2.85V26.7c0-1.19,0.18-2.26,0.55-3.2c0.36-0.94,0.85-1.73,1.46-2.37c0.61-0.64,1.31-1.13,2.1-1.47
		c0.78-0.34,1.6-0.51,2.46-0.51c1.07,0,2,0.18,2.78,0.55c0.78,0.37,1.42,0.87,1.92,1.51c0.51,0.64,0.88,1.4,1.12,2.28
		c0.24,0.88,0.36,1.83,0.36,2.86v1.13h-10.17c0.02,0.68,0.13,1.31,0.34,1.9c0.21,0.59,0.5,1.1,0.89,1.53
		c0.38,0.43,0.85,0.78,1.39,1.03c0.54,0.25,1.16,0.38,1.84,0.38c0.91,0,1.68-0.18,2.3-0.54c0.63-0.36,1.18-0.84,1.65-1.44l1.57,1.2
		c-0.24,0.36-0.53,0.71-0.87,1.05c-0.34,0.34-0.74,0.64-1.2,0.91c-0.46,0.27-0.98,0.48-1.57,0.64
		C218.63,34.29,217.96,34.36,217.21,34.36z M216.89,21.21c-0.52,0-0.99,0.09-1.43,0.28c-0.44,0.18-0.82,0.45-1.17,0.81
		c-0.34,0.35-0.63,0.79-0.85,1.32c-0.23,0.52-0.38,1.13-0.46,1.81h7.52v-0.19c-0.03-0.49-0.11-0.98-0.24-1.45
		c-0.14-0.48-0.34-0.91-0.63-1.29c-0.28-0.38-0.64-0.69-1.09-0.92C218.1,21.32,217.54,21.21,216.89,21.21z"/>
	<path d="M234.78,30.2c0-0.27-0.04-0.53-0.12-0.77c-0.08-0.24-0.25-0.46-0.49-0.68c-0.24-0.21-0.59-0.41-1.05-0.59
		c-0.45-0.18-1.05-0.35-1.79-0.5c-0.83-0.17-1.58-0.38-2.25-0.61c-0.67-0.23-1.23-0.52-1.7-0.85c-0.47-0.33-0.83-0.72-1.08-1.17
		c-0.25-0.45-0.37-0.98-0.37-1.59c0-0.58,0.13-1.13,0.4-1.65c0.26-0.52,0.63-0.98,1.11-1.37c0.48-0.39,1.06-0.71,1.75-0.94
		c0.68-0.23,1.45-0.34,2.29-0.34c0.9,0,1.7,0.12,2.41,0.36c0.71,0.24,1.31,0.57,1.8,0.99c0.49,0.41,0.87,0.9,1.13,1.46
		c0.26,0.55,0.39,1.15,0.39,1.78h-2.58c0-0.3-0.07-0.6-0.21-0.9c-0.14-0.3-0.34-0.57-0.61-0.81c-0.27-0.24-0.6-0.44-0.99-0.58
		c-0.39-0.15-0.84-0.22-1.34-0.22c-0.54,0-0.99,0.06-1.37,0.18c-0.38,0.12-0.68,0.28-0.92,0.49c-0.24,0.2-0.42,0.43-0.53,0.69
		c-0.11,0.26-0.17,0.52-0.17,0.8c0,0.27,0.05,0.52,0.14,0.73c0.09,0.22,0.27,0.41,0.53,0.59c0.26,0.18,0.61,0.34,1.06,0.49
		c0.45,0.15,1.03,0.3,1.74,0.45c0.92,0.21,1.71,0.44,2.39,0.71c0.67,0.26,1.23,0.57,1.68,0.92c0.44,0.35,0.78,0.75,0.99,1.2
		c0.22,0.45,0.33,0.98,0.33,1.58c0,0.64-0.14,1.23-0.41,1.76c-0.27,0.53-0.66,0.99-1.17,1.37c-0.51,0.38-1.12,0.67-1.83,0.89
		c-0.71,0.21-1.5,0.32-2.37,0.32c-1,0-1.88-0.14-2.64-0.41c-0.76-0.27-1.4-0.63-1.92-1.08c-0.52-0.45-0.91-0.96-1.18-1.53
		c-0.27-0.57-0.4-1.16-0.4-1.77h2.57c0.03,0.52,0.15,0.95,0.38,1.3c0.23,0.35,0.51,0.63,0.85,0.85c0.34,0.22,0.72,0.37,1.12,0.46
		c0.41,0.09,0.81,0.14,1.22,0.14c0.53,0,0.99-0.06,1.39-0.16c0.4-0.11,0.73-0.26,1-0.45c0.27-0.19,0.48-0.41,0.62-0.67
		C234.71,30.77,234.78,30.5,234.78,30.2z"/>
	<path d="M249.43,30.2c0-0.27-0.04-0.53-0.13-0.77c-0.08-0.24-0.25-0.46-0.49-0.68c-0.24-0.21-0.59-0.41-1.05-0.59
		c-0.45-0.18-1.05-0.35-1.79-0.5c-0.83-0.17-1.58-0.38-2.25-0.61c-0.67-0.23-1.23-0.52-1.7-0.85c-0.47-0.33-0.83-0.72-1.08-1.17
		c-0.25-0.45-0.37-0.98-0.37-1.59c0-0.58,0.13-1.13,0.39-1.65s0.64-0.98,1.12-1.37c0.48-0.39,1.06-0.71,1.75-0.94
		c0.69-0.23,1.45-0.34,2.29-0.34c0.9,0,1.7,0.12,2.41,0.36c0.71,0.24,1.31,0.57,1.8,0.99c0.49,0.41,0.87,0.9,1.13,1.46
		c0.26,0.55,0.39,1.15,0.39,1.78h-2.58c0-0.3-0.07-0.6-0.21-0.9c-0.14-0.3-0.34-0.57-0.61-0.81c-0.27-0.24-0.6-0.44-0.99-0.58
		c-0.39-0.15-0.84-0.22-1.35-0.22c-0.54,0-0.99,0.06-1.37,0.18c-0.38,0.12-0.68,0.28-0.92,0.49c-0.24,0.2-0.42,0.43-0.53,0.69
		c-0.11,0.26-0.17,0.52-0.17,0.8c0,0.27,0.04,0.52,0.14,0.73c0.09,0.22,0.27,0.41,0.53,0.59c0.26,0.18,0.61,0.34,1.06,0.49
		c0.45,0.15,1.03,0.3,1.74,0.45c0.91,0.21,1.71,0.44,2.39,0.71c0.67,0.26,1.24,0.57,1.68,0.92c0.45,0.35,0.78,0.75,0.99,1.2
		c0.22,0.45,0.33,0.98,0.33,1.58c0,0.64-0.14,1.23-0.41,1.76c-0.27,0.53-0.67,0.99-1.17,1.37c-0.51,0.38-1.12,0.67-1.83,0.89
		c-0.71,0.21-1.5,0.32-2.37,0.32c-1,0-1.88-0.14-2.64-0.41c-0.77-0.27-1.41-0.63-1.92-1.08c-0.52-0.45-0.91-0.96-1.18-1.53
		c-0.27-0.57-0.4-1.16-0.4-1.77h2.57c0.03,0.52,0.16,0.95,0.38,1.3c0.23,0.35,0.51,0.63,0.85,0.85c0.34,0.22,0.72,0.37,1.13,0.46
		c0.41,0.09,0.81,0.14,1.22,0.14c0.53,0,0.99-0.06,1.39-0.16c0.4-0.11,0.73-0.26,1-0.45c0.27-0.19,0.48-0.41,0.62-0.67
		C249.36,30.77,249.43,30.5,249.43,30.2z"/>
	<path d="M198.35,17.94c-0.31-0.73-0.76-1.37-1.36-1.9c-0.59-0.54-1.33-0.95-2.21-1.25c-0.88-0.3-1.89-0.45-3.03-0.45h-4.64v2.14
		h4.64c0.78,0,1.44,0.11,2,0.33c0.56,0.22,1.01,0.51,1.37,0.86c0.36,0.36,0.62,0.78,0.78,1.25c0.17,0.47,0.25,0.96,0.25,1.47
		c0,0.56-0.08,1.07-0.25,1.53c-0.17,0.46-0.43,0.87-0.78,1.2c-0.35,0.34-0.81,0.6-1.37,0.79c-0.56,0.19-1.23,0.28-2,0.28h-4.64v2.12
		h4.64c1.14,0,2.15-0.13,3.03-0.4c0.87-0.27,1.61-0.65,2.21-1.16c0.59-0.5,1.04-1.13,1.36-1.87c0.31-0.74,0.46-1.59,0.46-2.54
		C198.81,19.48,198.66,18.68,198.35,17.94z"/>
	<path d="M183.33,34.28c-0.7,0-1.26-0.57-1.26-1.26V15.77c0-0.7,0.57-1.26,1.26-1.26c0.7,0,1.26,0.57,1.26,1.26v17.24
		C184.59,33.71,184.03,34.28,183.33,34.28z"/>
	<path class="st2" d="M174.83,34.28c-0.7,0-1.26-0.57-1.26-1.26V15.77c0-0.7,0.57-1.26,1.26-1.26c0.7,0,1.26,0.57,1.26,1.26v17.24
		C176.09,33.71,175.53,34.28,174.83,34.28z"/>
	<path class="st3" d="M166.34,34.28c-0.7,0-1.26-0.57-1.26-1.26V15.77c0-0.7,0.56-1.26,1.26-1.26c0.7,0,1.26,0.57,1.26,1.26v17.24
		C167.6,33.71,167.03,34.28,166.34,34.28z"/>
	<path class="st4" d="M157.84,34.28c-0.7,0-1.26-0.57-1.26-1.26V15.77c0-0.7,0.57-1.26,1.26-1.26c0.7,0,1.26,0.57,1.26,1.26v17.24
		C159.1,33.71,158.54,34.28,157.84,34.28z"/>
</g>
</svg>
